<?xml version="1.0" standalone="no"?>
<!DOCTYPE svg PUBLIC "-//W3C//DTD SVG 1.1//EN" "http://www.w3.org/Graphics/SVG/1.1/DTD/svg11.dtd" >
<svg xmlns="http://www.w3.org/2000/svg">
<metadata></metadata>
<defs>
<font id="FundamentalBrigadeRegular" horiz-adv-x="909" >
<font-face units-per-em="2048" ascent="1638" descent="-410" />
<missing-glyph horiz-adv-x="542" />
<glyph horiz-adv-x="0" />
<glyph horiz-adv-x="2048" />
<glyph unicode=" "  horiz-adv-x="542" />
<glyph unicode="&#x09;" horiz-adv-x="542" />
<glyph unicode="&#xa0;" horiz-adv-x="542" />
<glyph unicode="!" horiz-adv-x="319" d="M80 4v277h184v-277h-184zM80 430v1026h184v-1026h-184z" />
<glyph unicode="&#x22;" horiz-adv-x="696" d="M47 1161q39 27 65.5 56.5t26.5 70.5v168h189v-168q0 -82 -45 -155.5t-144 -131.5zM358 1161q39 27 66 56.5t27 70.5v168h188v-168q0 -82 -45 -155.5t-143 -131.5z" />
<glyph unicode="#" horiz-adv-x="880" d="M39 301v186h166l31 187h-197v184h229l54 313h159l-55 -313h141l54 313h159l-55 -313h115v-184h-148l-33 -187h181v-186h-211l-54 -293h-155l49 293h-139l-51 -293h-156l49 293h-133zM362 487h140l33 187h-140z" />
<glyph unicode="$" horiz-adv-x="833" d="M37 356l156 80q12 -41 42.5 -79t75.5 -58v467q-51 27 -98 57.5t-82 68.5t-56.5 83t-21.5 102q0 119 68.5 190.5t189.5 110.5v78h205v-61q55 -6 103.5 -19.5t91.5 -34.5v-223q-31 41 -83.5 67.5t-111.5 37.5v-365q78 -45 158 -102q119 -88 119 -264q0 -61 -19.5 -121 t-56.5 -109t-88 -87t-113 -56v-115h-205v109q-45 8 -88 30.5t-80 54t-64.5 71.5t-41.5 87zM227 1094q0 -45 19.5 -74t64.5 -53v235l-6 -2q-76 -34 -78 -106zM516 311q19 11 39 31q61 61 61 150q0 94 -88 151l-12 8v-340z" />
<glyph unicode="%" horiz-adv-x="1470" d="M55 1217q0 66 25.5 125t70 103t103.5 70.5t127 26.5q66 0 125 -25.5t103 -69.5t71 -103.5t27 -126.5q0 -68 -27 -127.5t-71 -103.5t-103.5 -68.5t-124.5 -24.5q-68 0 -127 25.5t-103.5 69.5t-70 103.5t-25.5 125.5zM104 0l1063 1540h191l-1065 -1540h-189zM219 1214 q0 -66 46 -110.5t112 -44.5t112 45t46 110q-1 68 -48 111q-41 47 -110 47q-66 0 -112 -46t-46 -112zM766 326q0 66 25.5 125t69.5 103t102.5 70.5t126.5 26.5q66 0 125 -25.5t103 -69.5t70.5 -103.5t26.5 -126.5q0 -68 -26.5 -127.5t-70.5 -103.5t-103.5 -69.5t-124.5 -25.5 q-68 0 -126.5 25.5t-102.5 70.5t-69.5 104.5t-25.5 125.5zM930 324q0 -66 46 -111t109 -45q66 0 112 45t46 111q0 69 -47 110q-41 47 -111 47q-63 0 -109 -46t-46 -111z" />
<glyph unicode="&#x26;" horiz-adv-x="1120" d="M51 367v4q0 72 20.5 130t54.5 106t78 87t91 74l-47 59q-53 72 -53 160q0 55 22.5 103.5t60 85t86 57t97.5 20.5h4q66 -4 115 -30.5t82.5 -66.5t50 -85t16.5 -82q0 -88 -57.5 -149.5t-134.5 -112.5l260 -344q29 66 40 148.5t11 175.5h170q0 -135 -25.5 -254t-85.5 -217 l180 -236h-210l-80 106q-141 -106 -346 -106h-9q-80 0 -150.5 29.5t-123.5 81t-85 118t-32 138.5zM217 369q2 -43 21.5 -79t51.5 -63.5t71.5 -43t80.5 -15.5h7q150 0 243 72l-297 393q-70 -51 -123 -113.5t-53 -148.5h-2v-2zM362 987q0 -33 21 -57l51 -70q53 37 89 69t36 60 v2q0 14 -8 30.5t-22.5 31t-32 23.5t-35.5 9h-2q-33 0 -65 -28.5t-32 -69.5z" />
<glyph unicode="'" horiz-adv-x="356" d="M27 1161q41 27 67.5 56.5t26.5 70.5v168h186v-168q0 -82 -44 -155.5t-142 -131.5z" />
<glyph unicode="(" horiz-adv-x="530" d="M43 766q0 358 195 690h221q-231 -342 -232 -688q0 -190 67.5 -378.5t201.5 -385.5h-222q-231 391 -231 762z" />
<glyph unicode=")" horiz-adv-x="530" d="M35 4q133 199 200.5 388.5t67.5 375.5q0 346 -231 688h221q195 -332 194 -686q0 -373 -231 -766h-221z" />
<glyph unicode="*" horiz-adv-x="724" d="M43 1044l152 89l-152 90l82 145l151 -88v176h170v-176l154 88l84 -145l-154 -90l154 -89l-84 -145l-154 88v-176h-170v176l-151 -88z" />
<glyph unicode="+" horiz-adv-x="710" d="M20 362v187h240v242h189v-242h241v-187h-241v-241h-189v241h-240z" />
<glyph unicode="," horiz-adv-x="362" d="M27 -123q35 20 63.5 53t28.5 74v277h188v-277q0 -82 -45 -155.5t-143 -133.5z" />
<glyph unicode="-" horiz-adv-x="524" d="M80 381v186h362v-186h-362z" />
<glyph unicode="." horiz-adv-x="346" d="M80 4v277h184v-277h-184z" />
<glyph unicode="/" horiz-adv-x="425" d="M14 -350l267 1890h133l-269 -1890h-131z" />
<glyph unicode="0" horiz-adv-x="1103" d="M59 729q0 410 144 571q145 164 348 164q109 0 199 -43t155.5 -133t102 -228t36.5 -331q0 -406 -145 -569q-143 -164 -348 -164q-104 0 -194.5 43t-157 132t-103.5 227.5t-37 330.5zM264 729q0 -139 19.5 -239.5t56.5 -164t90 -93t121 -29.5q115 0 201 116q86 113 86 410 q0 279 -84 418q-72 111 -203 110q-123 0 -205 -116q-82 -119 -82 -412z" />
<glyph unicode="1" horiz-adv-x="532" d="M12 1106v186l244 164h205v-1452h-205v1266z" />
<glyph unicode="2" horiz-adv-x="1024" d="M45 0l668 874q49 61 49 146q0 51 -19.5 94t-52.5 74t-76 48t-88 17q-51 0 -94 -20.5t-74.5 -53t-49 -74.5t-17.5 -87l-205 2q0 98 37 178t99.5 137.5t143 89t166.5 31.5q88 0 167 -35t139.5 -95t95.5 -140t35 -170q-4 -150 -92 -266l-416 -545h475v-205h-891z" />
<glyph unicode="3" horiz-adv-x="1075" d="M43 334l197 51q25 -82 105.5 -132t180.5 -50q57 0 109.5 17.5t92.5 49t63.5 73.5t23.5 91t-19.5 92t-60.5 75t-102.5 51.5t-143.5 19.5v202q113 0 179.5 53.5t66.5 139.5t-62.5 138t-150.5 52q-43 0 -81 -15t-66.5 -40.5t-46 -60.5t-17.5 -74h-205q0 82 33 154.5 t90.5 127t133 85t159.5 30.5q86 0 163 -30.5t133 -85t90 -127t34 -154.5q0 -162 -119 -276q98 -78 149.5 -160t51.5 -197q0 -90 -39 -170t-106.5 -139t-158.5 -94t-194 -35q-84 0 -163.5 25.5t-144 69.5t-111 106.5t-64.5 136.5z" />
<glyph unicode="4" horiz-adv-x="1048" d="M10 354l553 1102h232l-451 -895h256v221h205v-221h213v-207h-213v-350h-205v350h-590z" />
<glyph unicode="5" horiz-adv-x="1081" d="M43 352l197 60q12 -47 38.5 -85t64.5 -66t84 -43t97 -15q59 0 113.5 22.5t95.5 61.5t64.5 91t23.5 114q0 59 -22.5 112t-62.5 93t-94 62.5t-118 22.5q-53 0 -95 -13t-79 -32.5t-70.5 -45t-70.5 -50.5v823h725v-207h-518v-278q31 4 57.5 7t50.5 3q104 0 195.5 -40 t160 -108.5t108.5 -158.5t40 -190q0 -102 -40 -192.5t-108.5 -158t-160.5 -106.5t-195 -39q-80 0 -156.5 25.5t-141 71.5t-112.5 112.5t-71 146.5z" />
<glyph unicode="6" horiz-adv-x="1081" d="M37 496q0 63 15.5 123.5t62.5 136.5h2l465 700h243l-317 -481h31q104 0 195 -39t160 -104.5t107.5 -152.5t38.5 -183q0 -100 -39.5 -187.5t-108.5 -153t-160 -103.5t-193 -38q-104 0 -195.5 38t-159 103.5t-107.5 153.5t-40 187zM242 496q0 -57 23.5 -107.5t63.5 -88.5 t94 -59.5t116 -21.5q61 0 114.5 21.5t94 59.5t64.5 88t24 108q0 55 -25 105t-65.5 88t-95 59.5t-111.5 21.5q-66 0 -135.5 -30.5t-112.5 -92.5l-4 -8q-23 -31 -34 -67.5t-11 -75.5z" />
<glyph unicode="7" horiz-adv-x="987" d="M45 1257v207h918l-234 -624h203v-207h-279l-231 -629h-219l231 629h-276v207h354l156 417h-623z" />
<glyph unicode="8" horiz-adv-x="1099" d="M53 434q0 193 150 318q33 29 47 34q-121 125 -121 281q0 82 34 154.5t90 126t133 85t163 31.5q82 0 157.5 -30.5t134 -85t92.5 -127t34 -154.5q0 -162 -121 -276q102 -74 151.5 -160t49.5 -197q0 -90 -40 -169t-108 -139t-158 -95t-190 -35q-104 0 -194.5 35t-158 94 t-106.5 139t-39 170zM258 451q0 -53 23.5 -98.5t63.5 -79t93.5 -52t112.5 -18.5q55 0 107.5 18.5t92.5 51t64.5 77.5t24.5 101q0 53 -24.5 98t-65.5 77.5t-93.5 51t-105.5 18.5h-2q-55 0 -108.5 -18.5t-93.5 -51t-64.5 -77.5t-24.5 -98zM336 1059q0 -41 16.5 -78t44 -64.5 t66.5 -44t86 -16.5q43 0 81 15.5t67.5 43t46 64.5t16.5 80q-1 73 -60 139q-59 59 -151 59q-49 0 -89 -17t-67.5 -46t-42 -63.5t-14.5 -71.5z" />
<glyph unicode="9" horiz-adv-x="1081" d="M43 975q0 98 39 185t107.5 153.5t159.5 104.5t196 38q102 0 193 -38t160 -104.5t109 -153.5t40 -185q0 -145 -82 -260l-463 -701h-248l321 482h-30q-104 0 -196.5 37.5t-160 103t-106.5 153t-39 185.5zM248 975q0 -55 22.5 -105.5t62.5 -88.5t94.5 -60.5t117.5 -22.5 q55 0 108.5 20.5t95.5 57.5t67.5 88t25.5 111q0 55 -23.5 105t-64.5 88t-94.5 60.5t-114.5 22.5t-115.5 -22.5t-94.5 -60.5t-63.5 -88t-23.5 -105z" />
<glyph unicode=":" horiz-adv-x="299" d="M80 4v277h184v-277h-184zM80 635v276h184v-276h-184z" />
<glyph unicode=";" horiz-adv-x="370" d="M27 -123q35 20 64.5 53t29.5 74v277h186v-277q0 -82 -44 -155.5t-142 -133.5zM121 635v276h186v-276h-186z" />
<glyph unicode="&#x3c;" horiz-adv-x="516" d="M23 745l8 27l213 684h198l-225 -708l248 -744h-197z" />
<glyph unicode="=" horiz-adv-x="778" d="M72 174v186h671v-186h-671zM72 549v186h671v-186h-671z" />
<glyph unicode="&#x3e;" horiz-adv-x="516" d="M51 4l246 744l-221 708h194l224 -711l-246 -741h-197z" />
<glyph unicode="?" horiz-adv-x="768" d="M25 1079q0 104 30.5 178t81.5 122t116.5 71t135.5 23t131.5 -24t108.5 -65t74.5 -94t27.5 -110q0 -139 -76 -230q-35 -39 -69.5 -64.5t-73.5 -47.5l-4 -2q-25 -14 -47.5 -29.5t-40 -35t-27.5 -45.5t-10 -58q0 -23 9 -40.5t57 -17.5q25 0 52 3t93 3v-188h-78 q-18 -2 -34.5 -2h-32.5q-49 0 -94.5 15.5t-81 46t-57 75.5t-21.5 105q0 147 65 211q35 33 72 61.5t78 52.5l6 4q39 23 63.5 42.5t40 40t21.5 44t6 56.5q0 16 -13.5 34.5t-35 34t-50 25.5t-59.5 10q-100 0 -139 -53t-39 -152h-186zM309 4v277h187v-277h-187z" />
<glyph unicode="@" horiz-adv-x="1482" d="M49 338q0 143 53.5 270t147.5 221.5t221 148.5t272 54q143 0 270.5 -55t221.5 -149.5t148.5 -220.5t54.5 -269q-2 -174 -106.5 -256t-319.5 -82h-158v72q-82 -82 -184 -82q-127 0 -209 104h2q-80 94 -80 240q0 74 22.5 136t61.5 108.5t91 73t112 26.5q104 0 184 -82v70 h158v-514q233 0 233 186q0 104 -40 195.5t-109.5 160t-160.5 108.5t-192 40q-102 0 -194 -40t-161 -108.5t-108.5 -161t-39.5 -194.5t39.5 -193.5t107.5 -160t160 -108.5t196 -40q133 0 236 58h297q-102 -127 -238.5 -188.5t-294.5 -61.5q-137 0 -263 52t-221 144 t-152.5 219t-57.5 279zM541 334q0 -37 11 -70t31.5 -58.5t49.5 -40.5t63 -15q33 0 61.5 14t50 39.5t34 59.5t12.5 71q0 76 -49 135q-49 49 -109 49q-33 0 -61.5 -15.5t-49 -40t-32.5 -58t-12 -70.5z" />
<glyph unicode="A" horiz-adv-x="1230" d="M31 4l475 1452h217l477 -1452h-217l-106 324h-527l-104 -324h-215zM412 508h407l-205 618z" />
<glyph unicode="B" horiz-adv-x="950" d="M78 -4v1460h364q80 0 152 -31.5t124 -85t82.5 -124t30.5 -148.5q0 -156 -108 -270q90 -59 134 -157.5t44 -199.5q0 -92 -35 -173t-95 -141t-140 -95t-172 -35h-381zM283 203h170q49 0 93 18.5t76.5 50t52 75.5t19.5 97q0 49 -19.5 93.5t-52 77t-76.5 52t-93 19.5h-170 v-483zM283 872l155 2q37 0 72 14.5t60.5 40t42 59.5t16.5 75q0 39 -15.5 72.5t-42 59.5t-60.5 41t-73 15h-155v-379z" />
<glyph unicode="C" horiz-adv-x="1126" d="M41 729q0 156 58.5 291t158.5 236.5t236 160t292 58.5q137 0 271 -50v-229q-129 74 -271 74q-221 0 -380 -160q-160 -158 -160 -381q0 -109 42 -206t115.5 -170.5t172 -116.5t210.5 -43q147 0 271 73v-227q-66 -27 -134.5 -39t-136.5 -12q-313 0 -530 217 q-98 102 -156.5 236t-58.5 288z" />
<glyph unicode="D" horiz-adv-x="1236" d="M76 4v1460h383q154 0 284.5 -56t235.5 -157q213 -213 213 -516q0 -154 -58.5 -287t-159 -231t-233.5 -155.5t-282 -57.5h-383zM281 209h178q109 0 205 42t167.5 113.5t113.5 167t42 203.5q0 106 -42 202.5t-114.5 168.5t-169 114t-202.5 42h-178v-1053z" />
<glyph unicode="E" horiz-adv-x="901" d="M78 4v1460h713v-207h-508v-428h495v-188h-495v-428h567v-209h-772z" />
<glyph unicode="F" horiz-adv-x="802" d="M78 4v1460h713v-207h-508v-428h446v-188h-446v-637h-205z" />
<glyph unicode="G" horiz-adv-x="1581" d="M51 729l6 102l21 99l31 92l43 86l53 78l61 71l74 64l78 51l86 43l94 33l96 20l103 7l98 -7l94 -18l90 -33l86 -41l78 -53l72 -59l-144 -148l-84 68l-90 49l-96 27l-104 10l-109 -10l-98 -29l-92 -49l-82 -72l-72 -82l-47 -92l-31 -98l-10 -109l10 -106l31 -101l47 -90 l72 -82l82 -69l90 -50l98 -28l111 -10l106 10l101 28l90 50l82 69l71 88l49 97l29 106h-362v188h571l6 -100l-6 -98l-21 -99l-32 -90l-43 -86l-54 -80l-63 -71l-76 -66l-80 -55l-84 -41l-90 -33l-96 -16h-98h-103l-96 16l-90 33l-84 41l-82 55l-76 66l-61 71l-53 80l-43 86 l-31 90l-21 99z" />
<glyph unicode="H" horiz-adv-x="1124" d="M76 4v1452h205v-627h563v627h205v-1452h-205v633h-563v-633h-205z" />
<glyph unicode="I" horiz-adv-x="360" d="M76 4v1452h205v-1452h-205z" />
<glyph unicode="J" horiz-adv-x="434" d="M31 -4v207h121v1253h204v-1339q0 -45 -33.5 -83t-86.5 -38h-205z" />
<glyph unicode="K" horiz-adv-x="1032" d="M78 4v1452h205v-649l387 649h241l-399 -665l471 -787h-240l-460 766v-766h-205z" />
<glyph unicode="L" horiz-adv-x="761" d="M78 4v1452h205v-1243h471v-209h-676z" />
<glyph unicode="M" horiz-adv-x="1445" d="M78 4v1452h203l442 -964l442 964h201v-1452h-203v952l-348 -751l-92 -205l-92 205l-348 751v-952h-205z" />
<glyph unicode="N" horiz-adv-x="1165" d="M80 4v1452h201l598 -1026v1026h206v-1452h-196l-604 1038v-1038h-205z" />
<glyph unicode="O" horiz-adv-x="1589" d="M49 729q0 156 58.5 291t160 236.5t236.5 160t291 58.5q154 0 289 -58.5t236 -160t159.5 -237.5t58.5 -290t-57.5 -287t-159.5 -237q-219 -217 -526 -217q-313 0 -529 217q-100 102 -158.5 236t-58.5 288zM256 729q0 -109 42 -206t114.5 -170.5t171 -116.5t211.5 -43 q111 0 208 41.5t170.5 114.5t115.5 170t42 213q0 223 -155 378q-160 160 -381 160t-381 -160q-158 -156 -158 -381z" />
<glyph unicode="P" horiz-adv-x="897" d="M78 4v1460h391q88 0 164 -33.5t132 -91t88 -133.5t32 -157q0 -86 -34 -161t-90 -132.5t-132 -90t-160 -32.5h-186v-629h-205zM283 840h186q43 0 81 17t66.5 46t45 67t16.5 79q0 43 -15.5 80.5t-43 66.5t-66.5 45t-84 16h-186v-417z" />
<glyph unicode="Q" horiz-adv-x="1626" d="M49 729q0 156 58.5 291t160 236.5t236.5 160t291 58.5q154 0 289 -58.5t236 -160t159.5 -237.5t58.5 -290q0 -297 -201 -506q29 -18 72 -25.5t80 -7.5q20 0 39.5 2.5t42.5 8.5l2 -13v-196q-43 -6 -84 -6q-92 0 -174 26.5t-150 73.5q-166 -98 -370 -98q-313 0 -529 217 q-100 102 -158.5 236t-58.5 288zM256 729q0 -109 42 -206t114.5 -170.5t171 -116.5t211.5 -43h5q94 0 189 34q-51 29 -93 40.5t-89 11.5q-23 0 -43.5 -3.5t-40.5 -7.5v209q43 6 84 6q100 0 194.5 -33.5t172.5 -99.5h2q155 153 155 376q0 228 -155 384q-160 160 -381 160 t-381 -160q-158 -156 -158 -381z" />
<glyph unicode="R" horiz-adv-x="1009" d="M78 4v1460h379q88 0 163.5 -33.5t132 -91t88 -133.5t31.5 -157q0 -123 -67.5 -229.5t-194.5 -155.5l355 -660h-234l-364 682l-84 154v-836h-205zM283 840h174q43 0 80.5 17t66.5 46t45.5 67t16.5 79q0 43 -15.5 80.5t-43 66.5t-66.5 45t-84 16h-174v-417z" />
<glyph unicode="S" horiz-adv-x="983" d="M51 274l182 95q23 -82 90.5 -132.5t151.5 -50.5q51 0 97 19.5t81 53.5t54.5 79t19.5 98q0 104 -102 172q-51 35 -108.5 66t-117 63.5t-117 68.5t-108.5 79q-53 45 -77.5 106.5t-24.5 147.5q0 80 34.5 144.5t94 109.5t138.5 69.5t169 24.5q98 0 180 -17.5t148 -50.5v-258 q-10 10 -30 28.5t-50 47.5q-74 61 -226 61q-51 0 -97 -11t-82 -34.5t-56.5 -57.5t-20.5 -77q0 -92 189 -184q98 -47 178 -94t152 -101q139 -104 139 -299q0 -98 -37 -182t-99.5 -146.5t-145.5 -97t-175 -34.5q-68 0 -133.5 20t-122.5 58t-101 93.5t-67 122.5z" />
<glyph unicode="T" horiz-adv-x="962" d="M31 1257v207h901v-207h-348v-1253h-207v1253h-346z" />
<glyph unicode="U" horiz-adv-x="1103" d="M68 471v985h204v-985q0 -59 23.5 -110.5t61.5 -88t88.5 -58t105.5 -21.5q57 0 107.5 21.5t88 59t60 88t22.5 109.5v985h207v-985q0 -98 -37.5 -186t-104.5 -155t-155 -104.5t-188 -37.5t-188.5 37.5t-154 102.5t-103 153t-37.5 190z" />
<glyph unicode="V" horiz-adv-x="1103" d="M31 1456h192l330 -1120l330 1120h190l-426 -1452h-190z" />
<glyph unicode="W" horiz-adv-x="1781" d="M49 1456h213l256 -1079l275 803l98 282l373 -1085l256 1079h213l-347 -1452h-212l-283 823l-283 -823h-215z" />
<glyph unicode="X" horiz-adv-x="1048" d="M53 4l359 791l-301 661h225l188 -414l189 414h225l-301 -661l358 -791h-227l-244 543l-248 -543h-223z" />
<glyph unicode="Y" d="M29 1456h219l207 -565l209 565h219l-326 -883v-569h-207v569z" />
<glyph unicode="Z" horiz-adv-x="1017" d="M55 -4l580 1261h-551v207h874l-67 -143l-514 -1118h581v-207h-903z" />
<glyph unicode="[" horiz-adv-x="385" d="M80 4v1452h233v-188h-49v-1075h53v-189h-237z" />
<glyph unicode="\" horiz-adv-x="425" d="M14 1540h131l269 -1890h-133z" />
<glyph unicode="]" horiz-adv-x="387" d="M70 4v189h51v1075h-49v188h235v-1452h-237z" />
<glyph unicode="^" horiz-adv-x="604" d="M37 1151l176 229h186l166 -229h-184l-78 104l-80 -104h-186z" />
<glyph unicode="_" horiz-adv-x="1114" d="M72 -207h968v-186h-968v186z" />
<glyph unicode="`" horiz-adv-x="403" d="M-76 1266h187l165 -230h-186z" />
<glyph unicode="a" horiz-adv-x="991" d="M55 459q0 98 32 184t85 149.5t124 100.5t148 37q164 0 277 -144l2 -2q0 -4 4 -4v133h184v-909h-184v133l-6 -6q-115 -141 -277 -141q-78 0 -148.5 35.5t-123.5 98t-85 148.5t-32 187zM242 459q0 -57 19.5 -108.5t52 -90.5t76.5 -61.5t93 -22.5t94.5 22.5t78 61.5t52 90 t19.5 109q0 121 -76 205q-71 77 -166 77h-2q-51 0 -95 -23.5t-76.5 -62.5t-51 -90t-18.5 -106z" />
<glyph unicode="b" horiz-adv-x="952" d="M80 4v1452h184v-676q4 4 8 6q111 143 277 144q78 0 147.5 -37t122.5 -100.5t85 -149.5t32 -184q0 -100 -32 -186.5t-85 -149t-122.5 -98t-147.5 -35.5q-166 0 -277 141l-8 6v-133h-184zM264 459q0 -57 19.5 -108.5t52.5 -90.5t78 -61.5t94 -22.5t93 22.5t77 61.5t52.5 90 t19.5 109q0 55 -19.5 106t-52.5 90t-77 62.5t-93 23.5h-3q-98 0 -163 -77q-78 -84 -78 -205z" />
<glyph unicode="c" horiz-adv-x="829" d="M47 459q0 96 37 182t101.5 150.5t149.5 101.5t181 37q129 0 240 -68v-254q-90 133 -240 133q-59 0 -110.5 -22.5t-89 -60t-60.5 -90t-23 -109.5q0 -59 23 -110.5t60.5 -89.5t89 -60.5t110.5 -22.5q156 0 240 133v-254q-104 -65 -236 -65h-4q-96 0 -182 36.5t-149.5 101.5 t-100.5 149.5t-37 181.5z" />
<glyph unicode="d" horiz-adv-x="952" d="M16 459q0 98 32 184t85 149.5t124 100.5t149 37q164 0 276 -144l2 -2q0 -4 4 -4v676h184v-1452h-184v133l-6 -6q-115 -141 -276 -141q-78 0 -149 35.5t-124 98t-85 148.5t-32 187zM203 459q0 -57 19.5 -108.5t52 -90.5t76.5 -61.5t93 -22.5t94.5 22.5t78 61.5t52 90 t19.5 109q0 121 -76 205q-71 77 -166 77h-2q-51 0 -95 -23.5t-76.5 -62.5t-51 -90t-18.5 -106z" />
<glyph unicode="e" horiz-adv-x="1040" d="M53 459q0 96 37 182t101.5 150.5t149.5 101.5t181 37q94 0 180 -37t151 -101.5t102.5 -149.5t37.5 -183q0 -43 -8 -82h-731q29 -98 104.5 -149.5t163.5 -51.5q106 0 191 74h231q-66 -129 -179.5 -194.5t-242.5 -65.5q-96 0 -182 36.5t-149.5 101.5t-100.5 149.5 t-37 181.5zM254 543h541q-33 96 -107 147t-166 51q-90 0 -164.5 -51t-103.5 -147z" />
<glyph unicode="f" horiz-adv-x="460" d="M29 727v188h90v308q0 45 18.5 88t50 74.5t74.5 51t90 19.5h66v-188h-66q-20 0 -32.5 -14.5t-12.5 -30.5v-308h103v-188h-103v-723h-188v723h-90z" />
<glyph unicode="g" horiz-adv-x="980" d="M51 459q0 98 32 184t85 149.5t123.5 100.5t148.5 37q164 0 277 -144l2 -2q0 -4 4 -4v133h184v-858q0 -111 -35.5 -182.5t-95 -112.5t-135.5 -56q-67 -13 -137 -13h-18q-80 2 -157 17.5t-139 33.5v188q98 -23 194 -34q46 -5 88 -5q44 0 83 5q76 12 122 49t46 110v82l-6 -6 q-115 -141 -277 -141q-78 0 -148.5 35.5t-123.5 98t-85 148.5t-32 187zM238 459q0 -57 19 -108.5t52 -90.5t77 -61.5t93 -22.5t94 22.5t78 61.5t52.5 90t19.5 109q0 121 -76 205q-71 77 -166 77h-2q-51 0 -95 -23.5t-77 -62.5t-51 -90t-18 -106z" />
<glyph unicode="h" horiz-adv-x="864" d="M80 4v1452h184v-649q14 27 40 50.5t56.5 40.5t64.5 27.5t67 10.5q72 0 135 -31t110 -83t75 -121.5t28 -145.5v-551h-189v551h-2q0 82 -53 135h-2q-61 57 -137 58q-37 0 -72 -14.5t-61.5 -40t-43 -61.5t-16.5 -77v-551h-184z" />
<glyph unicode="i" horiz-adv-x="346" d="M80 4v914h184v-914h-184zM80 1151v229h184v-229h-184z" />
<glyph unicode="j" horiz-adv-x="387" d="M20 -119h64q20 0 32.5 14.5t12.5 34.5v988h186v-988q0 -47 -17 -90t-49 -74.5t-74 -51t-91 -19.5h-64v186zM129 1151v229h186v-229h-186z" />
<glyph unicode="k" horiz-adv-x="858" d="M80 4v1452h184v-876l248 338h231l-258 -355l367 -559h-223l-365 555v-555h-184z" />
<glyph unicode="l" horiz-adv-x="346" d="M80 4v1452h184v-1452h-184z" />
<glyph unicode="m" horiz-adv-x="1384" d="M80 4v914h184v-105q4 6 7 10t8 11q94 106 213 106q78 0 146.5 -47t113.5 -141q16 43 43.5 77.5t62.5 59t75 38t79 13.5q57 0 109.5 -26.5t93 -73.5t66.5 -109.5t30 -132.5v-594h-189v594q-8 66 -56 110t-112 44q-66 0 -111.5 -45t-54.5 -109v-594h-186v594 q-12 72 -61 113t-109 41q-61 0 -108.5 -41t-57.5 -113h-2v-594h-184z" />
<glyph unicode="n" d="M80 4v914h184v-111q14 27 40 50.5t56.5 40.5t64.5 27.5t67 10.5q72 0 135 -31t110 -83t75 -121.5t28 -145.5v-551h-189v551q0 80 -55 135h-2q-61 57 -137 58q-37 0 -72 -14.5t-61.5 -40t-43 -61.5t-16.5 -77v-551h-184z" />
<glyph unicode="o" horiz-adv-x="1048" d="M53 459q0 96 37 182t101.5 150.5t149.5 101.5t181 37q94 0 180 -37t151 -101.5t102.5 -149.5t37.5 -183t-37.5 -183.5t-102.5 -149t-151 -100t-180 -36.5q-96 0 -182 36.5t-149.5 101.5t-100.5 149.5t-37 181.5zM240 459q0 -59 22.5 -110.5t61 -89.5t90 -60.5 t108.5 -22.5t109.5 21.5t91.5 60.5t61.5 90t22.5 111q0 120 -84 200q-80 82 -201 82q-57 0 -108.5 -22.5t-90 -60t-61 -90t-22.5 -109.5z" />
<glyph unicode="p" horiz-adv-x="960" d="M80 -305v1218h184v-133q4 4 8 6q111 143 277 144q78 0 147.5 -37t122.5 -100.5t85 -149.5t32 -184q0 -100 -32 -186.5t-85 -149t-122.5 -98t-147.5 -35.5q-166 0 -277 141l-8 6v-442h-184zM264 459q0 -57 19.5 -108.5t52.5 -90.5t78 -61.5t94 -22.5t93 22.5t77 61.5 t52.5 90t19.5 109q0 55 -19.5 106t-52.5 90t-77 62.5t-93 23.5h-3q-98 0 -163 -77q-78 -84 -78 -205z" />
<glyph unicode="q" horiz-adv-x="960" d="M25 459q0 98 31.5 184t85 149.5t124 100.5t148.5 37q164 0 274 -144q2 0 3 -2t5 -4v133h185v-1218h-185v442l-8 -6q-111 -141 -274 -141q-78 0 -148.5 35.5t-124 98t-85 148.5t-31.5 187zM211 459q0 -57 19.5 -108.5t52 -90.5t76.5 -61.5t94 -22.5q49 0 94 22.5 t77.5 61.5t52 90t19.5 112q0 119 -75 202q-71 77 -166 77h-2q-51 0 -95.5 -23.5t-77 -62.5t-51 -90t-18.5 -106z" />
<glyph unicode="r" horiz-adv-x="544" d="M80 4v914h184v-111q14 27 40 50.5t56.5 40.5t64.5 27.5t67 10.5h34v-188h-69q-37 0 -72 -14.5t-61.5 -40t-43 -61.5t-16.5 -77v-551h-184z" />
<glyph unicode="s" horiz-adv-x="765" d="M43 152l137 127q51 -57 106.5 -83t108.5 -26q63 0 96 23.5t33 80.5q0 78 -123 107q-61 12 -114.5 31.5t-92 51.5t-61 79t-22.5 116q0 61 15 103.5t39.5 70t55.5 45t62 27.5q68 25 159 25q92 0 193 -35v-211q-86 68 -215 68q-59 0 -94 -25t-35 -74q0 -70 112 -96 q68 -16 124.5 -35.5t97.5 -51.5t63.5 -82t22.5 -126q0 -68 -30 -119t-75 -84.5t-100 -50t-105 -16.5q-98 0 -189 37t-169 123z" />
<glyph unicode="t" horiz-adv-x="440" d="M33 729v189h90v280h186v-280h105v-189h-105v-725h-186v725h-90z" />
<glyph unicode="u" horiz-adv-x="911" d="M70 373v551h186v-551h2q0 -37 14.5 -72t41 -61.5t61.5 -42t76 -15.5q37 0 71.5 14.5t61 41t43 60.5t16.5 75v551h188v-920h-188v117q-33 -53 -98.5 -90t-126.5 -37q-74 0 -137.5 29.5t-110.5 82t-73.5 121t-26.5 146.5z" />
<glyph unicode="v" horiz-adv-x="821" d="M35 918h194l181 -562l182 562h196l-294 -914h-166z" />
<glyph unicode="w" horiz-adv-x="1232" d="M53 918h193l123 -474l174 474h155l172 -474l125 474h193l-238 -914h-116l-216 582l-210 -582h-117z" />
<glyph unicode="x" horiz-adv-x="921" d="M57 4l295 508l-235 406h217l127 -222l129 222h217l-240 -406l299 -508h-217l-188 324l-189 -324h-215z" />
<glyph unicode="y" horiz-adv-x="843" d="M35 918h201l215 -574l170 574h194l-360 -1223h-197l104 354z" />
<glyph unicode="z" horiz-adv-x="802" d="M72 4l356 729h-356v185h657l-360 -728h362v-186h-659z" />
<glyph unicode="{" horiz-adv-x="501" d="M14 637v186q72 0 97 82q12 41 21 85t18 91q25 143 67 258q43 117 209 117v-186q-23 0 -38 -18.5t-24.5 -49.5t-15.5 -69.5t-12 -77.5q-6 -43 -19.5 -91.5t-33 -91.5t-46 -76.5t-57.5 -50.5q33 -18 58.5 -58t45 -88t33 -99t19.5 -92t12 -80t15.5 -70t24.5 -49.5t38 -18.5 v-186q-166 0 -209 117q-43 113 -67 260q-8 47 -17.5 90t-21.5 84q-25 82 -97 82z" />
<glyph unicode="|" horiz-adv-x="333" d="M72 -352v1808h186v-1808h-186z" />
<glyph unicode="}" horiz-adv-x="499" d="M76 4v186q20 0 33.5 18.5t23.5 49.5t17.5 70t13.5 80q6 43 19.5 94t31.5 98t44 87t58 58q-49 27 -77.5 76t-46 106.5t-27.5 119t-21.5 110.5t-27 81t-41.5 32v186q160 0 207 -117q45 -115 65 -258q8 -47 17.5 -91t21.5 -85q27 -82 100 -82v-186q-39 0 -62.5 -23.5 t-37.5 -60.5t-22.5 -82t-16.5 -90q-20 -147 -65 -260q-47 -117 -207 -117z" />
<glyph unicode="~" horiz-adv-x="774" d="M59 625q0 117 50.5 186.5t142.5 69.5q96 0 182 -82q45 -39 82 -39q57 0 57 112h144q0 -111 -54.5 -182.5t-146.5 -71.5q-45 0 -92 19.5t-88 58.5q-43 43 -86 43q-29 0 -38 -34.5t-9 -79.5h-144z" />
<glyph unicode="&#xa1;" horiz-adv-x="333" d="M72 4v1026h186v-1026h-186zM72 1180v276h186v-276h-186z" />
<glyph unicode="&#xa2;" horiz-adv-x="790" d="M29 459q0 82 28.5 158.5t78.5 139t119 105.5t148 60v108h187v-108q41 -10 76.5 -23.5t70.5 -36.5v-254q-59 92 -147 119v-537q45 14 83 46t64 73v-254q-68 -41 -147 -57v-127h-187v127q-82 14 -150.5 58t-118.5 106.5t-77.5 138.5t-27.5 158zM215 459q0 -88 51 -164 t137 -105v537q-59 -23 -104 -68q-84 -84 -84 -200z" />
<glyph unicode="&#xa3;" horiz-adv-x="1146" d="M53 0v188h72v174h-68v187h68v436q0 98 38 185t104.5 154t154.5 105.5t188 38.5t188.5 -37.5t154 -102t103.5 -154t38 -189.5h-205q0 59 -23.5 110.5t-61.5 88.5t-88 58.5t-106 21.5q-57 0 -107 -21.5t-88 -59.5t-60.5 -89.5t-22.5 -108.5v-436h151v-187h-151v-174h770 v-188h-770h-207h-72z" />
<glyph unicode="&#xa4;" horiz-adv-x="1048" d="M-20 356l149 150q-76 113 -76 258q0 74 21.5 140.5t60.5 123.5l-155 158l133 131l155 -158q113 76 254 76q70 0 135.5 -21.5t120.5 -58.5l162 162l133 -131l-162 -162q39 -55 60.5 -121.5t21.5 -138.5t-20.5 -135.5t-54.5 -118.5l155 -154l-131 -133l-156 154 q-57 -39 -124.5 -60.5t-139.5 -21.5q-145 0 -260 80l-151 -152zM240 764q0 -59 22.5 -110.5t61 -89.5t90 -60.5t108.5 -22.5t109.5 21.5t91.5 60.5t61.5 90.5t22.5 110.5q0 121 -84 201q-80 82 -201 82q-57 0 -108.5 -23t-90 -60.5t-61 -90t-22.5 -109.5z" />
<glyph unicode="&#xa5;" horiz-adv-x="933" d="M41 1456h217l209 -565l209 565h219l-264 -721h172v-186h-234v-189h234v-186h-234v-170h-207v170h-231v186h231v189h-231v186h172z" />
<glyph unicode="&#xa6;" horiz-adv-x="317" d="M72 -352v803h186v-803h-186zM72 754v702h186v-702h-186z" />
<glyph unicode="&#xa7;" horiz-adv-x="899" d="M51 -72l166 86q20 -76 80.5 -121t136.5 -45q47 0 88 17.5t72 48.5t49.5 73t18.5 89q0 90 -93 155q-47 31 -98 58.5t-104.5 56.5t-105.5 60.5t-97 72.5q-92 82 -92 230q0 70 28.5 125t77.5 98l-14 10q-92 80 -92 229q0 74 31.5 132.5t85 99.5t125 62.5t151.5 21.5 q92 0 164.5 -16.5t132.5 -45.5v-231q-18 20 -74 66q-33 27 -83 42t-120 15q-47 0 -88 -10.5t-73.5 -31t-51 -51t-18.5 -69.5q0 -86 170 -168q88 -41 160.5 -84t136.5 -92q63 -47 95 -111.5t32 -156.5q0 -68 -20.5 -128.5t-55.5 -113.5q27 -28 43 -65q33 -72 33 -156 q0 -90 -33 -166t-90 -132t-132 -88t-159 -32q-61 0 -120.5 18.5t-111.5 53.5t-91 84t-60 110zM254 690q0 -84 170 -166q57 -29 107.5 -55.5t93.5 -54.5q18 31 27.5 59.5t9.5 65.5q0 53 -30 92t-76 71.5t-102.5 60.5t-111.5 58l-18 -10q-33 -20 -51.5 -50t-18.5 -71z" />
<glyph unicode="&#xa8;" horiz-adv-x="741" d="M209 1038v230h186v-230h-186zM618 1038v230h187v-230h-187z" />
<glyph unicode="&#xa9;" horiz-adv-x="1587" d="M49 729q0 156 58.5 291t159 236.5t236.5 160t292 58.5q154 0 289 -58.5t236 -160t159.5 -237.5t58.5 -290t-57.5 -287t-161.5 -237q-219 -217 -524 -217q-313 0 -531 217q-100 102 -157.5 236t-57.5 288zM254 729q0 -109 42 -206t115.5 -170.5t172 -116.5t211.5 -43 q111 0 208 41.5t169.5 114.5t115.5 170t43 210q1 225 -157 381q-160 160 -379 160q-225 0 -381 -160q-160 -158 -160 -381zM348 731q0 92 35 174t95.5 142.5t142.5 95.5t176 35q88 0 174 -33v-178q-98 55 -174 55q-61 0 -113.5 -23.5t-92.5 -63.5t-62.5 -93.5t-22.5 -110.5 q0 -59 22.5 -111.5t61.5 -92.5t92 -63.5t115 -23.5q76 0 174 58v-179q-92 -35 -174 -34q-90 0 -171 33.5t-142.5 93t-98.5 141.5t-37 178z" />
<glyph unicode="&#xaa;" horiz-adv-x="817" d="M57 1026q0 80 24.5 148.5t68 120t100.5 80t121 28.5q117 0 202 -90v76h172v-725h-172v77q-88 -92 -202 -92q-66 0 -122 30t-99.5 80t-68 118.5t-24.5 148.5zM76 362v187h669v-187h-669zM231 1026q0 -41 13.5 -77t36 -63.5t53.5 -44t67 -16.5q35 0 67 16.5t55.5 44 t36.5 63.5t13 77q0 87 -55 148q-55 55 -117 55q-37 0 -67.5 -16.5t-53 -44t-36 -64.5t-13.5 -78z" />
<glyph unicode="&#xab;" horiz-adv-x="749" d="M53 410l133 327h201l-133 -327l127 -310h-203zM346 410l133 327h203l-137 -327l129 -310h-203z" />
<glyph unicode="&#xac;" horiz-adv-x="761" d="M16 362v187h672v-408h-190v221h-482z" />
<glyph unicode="&#xad;" horiz-adv-x="829" d="M80 362v187h670v-187h-670z" />
<glyph unicode="&#xae;" horiz-adv-x="1587" d="M49 729q0 156 58.5 291t159 236.5t236.5 160t292 58.5q154 0 289 -58.5t236 -160t159.5 -237.5t58.5 -290t-57.5 -287t-161.5 -237q-219 -217 -524 -217q-313 0 -531 217q-100 102 -157.5 236t-57.5 288zM254 729q0 -109 42 -206t115.5 -170.5t172 -116.5t211.5 -43 q180 0 319 104h-147l-230 424v-424h-155v879h235q55 0 102.5 -21.5t82 -56.5t55 -83t20.5 -100q0 -72 -40 -136t-101 -95q47 -90 99 -184t100 -187q98 86 147 186.5t49 229.5q1 225 -157 381q-160 160 -379 160q-225 0 -381 -160q-160 -158 -160 -381zM737 815h80 q43 0 73 29.5t30 70.5q0 43 -28 73t-75 30h-80v-203z" />
<glyph unicode="&#xaf;" horiz-adv-x="991" d="M164 1034v140h659v-140h-659z" />
<glyph unicode="&#xb0;" horiz-adv-x="512" d="M55 1260q0 86 58.5 144t142.5 58q41 0 78 -16t64.5 -44t43 -65t15.5 -77q0 -84 -58.5 -142.5t-142.5 -58.5t-142.5 58.5t-58.5 142.5zM168 1260q0 -35 25.5 -60.5t60.5 -25.5t61.5 25.5t26.5 60.5q0 37 -26.5 62.5t-61.5 25.5t-60.5 -26t-25.5 -62z" />
<glyph unicode="&#xb1;" horiz-adv-x="757" d="M43 74v186h672v-186h-672zM43 551v186h242v244h186v-244h244v-186h-244v-242h-186v242h-242z" />
<glyph unicode="&#xb2;" horiz-adv-x="686" d="M41 657l405 537q25 25 25 70q0 53 -36 83.5t-87 30.5q-37 0 -63.5 -23.5t-38.5 -54.5q-6 -18 -6 -57l-156 2q0 70 14 107v-2q25 76 85.5 125t138.5 59h-3q10 2 19.5 2h19.5q55 0 104.5 -21.5t86.5 -59.5t58.5 -88t21.5 -105q0 -92 -58 -164l-215 -283q63 0 129 -1t125 -1 v-156h-569z" />
<glyph unicode="&#xb3;" horiz-adv-x="692" d="M39 885l149 39q16 -57 59.5 -84t92.5 -27q57 0 102 35t45 82q0 43 -38 78q-10 8 -20.5 15t-26 12t-40 8.5t-63.5 3.5v153q74 0 107.5 25.5t33.5 66.5t-30.5 65.5t-71.5 24.5q-43 0 -72.5 -26.5t-29.5 -81.5h-156q0 61 20.5 110.5t55 84t82 53t100.5 18.5q55 0 102 -19.5 t82 -53t55.5 -79t20.5 -96.5q0 -88 -59 -157q51 -41 78.5 -91.5t27.5 -113.5q0 -55 -24.5 -104.5t-65.5 -87.5t-96.5 -59.5t-118.5 -21.5q-102 0 -184 58q-90 57 -117 170z" />
<glyph unicode="&#xb4;" horiz-adv-x="419" d="M166 1047l188 229h185l-187 -229h-186z" />
<glyph unicode="&#xb5;" horiz-adv-x="1024" d="M72 -350v1263h186v-594h2q8 -72 56.5 -111.5t109.5 -39.5q59 0 108.5 40t59.5 111h2v594h184v-594q10 -61 55.5 -106t110.5 -45q18 0 34.5 2t31.5 10l-8 -200q-39 0 -78 13t-74 37.5t-62.5 59.5t-44.5 78q-47 -94 -115.5 -141t-146.5 -47q-119 0 -211 106q-4 6 -7 10 t-7 10v-456h-186z" />
<glyph unicode="&#xb6;" horiz-adv-x="1083" d="M29 1049q0 82 31.5 157.5t88 133t132 91t163.5 33.5l566 -8v-1456h-187v1264h-172v-1264h-205v633q-86 0 -161.5 32.5t-132 89t-90 132.5t-33.5 162z" />
<glyph unicode="&#xb7;" horiz-adv-x="333" d="M72 635v276h186v-276h-186z" />
<glyph unicode="&#xb8;" horiz-adv-x="354" d="M23 -319q35 20 64.5 53t29.5 76v276h186v-276q0 -82 -44 -156t-142 -133z" />
<glyph unicode="&#xb9;" horiz-adv-x="387" d="M16 1282v156l154 102h143v-872h-157v708q-35 -23 -73 -48t-67 -46z" />
<glyph unicode="&#xba;" horiz-adv-x="864" d="M57 1081q0 78 30 146.5t80 120t117.5 81t145.5 29.5q76 0 145.5 -29.5t121 -81t82 -120t30.5 -146.5t-30.5 -145.5t-82 -118.5t-121 -80.5t-145.5 -29.5t-143.5 29.5t-118.5 80.5t-81 119t-30 145zM78 362v187h710v-187h-710zM229 1081q0 -41 16.5 -76.5t44 -63.5 t63.5 -44t77 -16q86 0 144.5 58t58.5 142q-1 85 -60 144t-143 59q-41 0 -78 -16.5t-64.5 -44t-43 -64.5t-15.5 -78z" />
<glyph unicode="&#xbb;" horiz-adv-x="749" d="M70 737h200l136 -327l-130 -310h-200l127 310zM362 737h199l137 -327l-129 -310h-202l129 310z" />
<glyph unicode="&#xbc;" horiz-adv-x="1363" d="M57 0l1061 1540h193l-1067 -1540h-187zM104 1282v156l152 102h145v-872h-157v708q-35 -23 -73 -48t-67 -46zM664 203l335 674h177l-258 -517h96v129h155v-129h123v-157h-123v-201h-155v201h-350z" />
<glyph unicode="&#xbd;" horiz-adv-x="1470" d="M61 0l1063 1540h191l-1065 -1540h-189zM63 1284v154l152 102h143v-872h-155v708q-35 -23 -73 -48t-67 -44zM829 0l406 535q25 31 25 69q0 53 -37 85t-86 32q-37 0 -63.5 -24.5t-39.5 -55.5q-6 -18 -6 -55h-158q0 63 17 106v-2q25 78 85 126t138 58h-2q10 2 19.5 2.5 t19.5 0.5q53 0 102 -21.5t86 -59.5t59.5 -88.5t22.5 -105.5q0 -92 -57 -164l-215 -282q63 0 128.5 -1t125.5 -1v-154h-570z" />
<glyph unicode="&#xbe;" horiz-adv-x="1517" d="M47 889l152 39q14 -57 57 -84t92 -27q29 0 55.5 9.5t48 25.5t34 36.5t12.5 45.5q0 43 -39 78q-10 8 -20.5 15t-26 12t-40 8.5t-63.5 3.5v153q72 0 107 25.5t35 66.5t-32 65.5t-73 24.5q-43 0 -71.5 -26.5t-28.5 -81.5h-158q0 61 20.5 110.5t55.5 84t82 53t100 18.5 q55 0 102.5 -19.5t82 -53t55 -78.5t20.5 -97q0 -92 -59 -157q51 -41 78.5 -91.5t27.5 -113.5q0 -55 -24.5 -104.5t-65.5 -87t-96 -59t-119 -21.5q-104 0 -182 57q-88 55 -119 170zM209 0l1063 1540h190l-1067 -1540h-186zM807 203l334 674h178l-260 -517h96v129h156v-129 h123v-157h-123v-201h-156v201h-348z" />
<glyph unicode="&#xbf;" horiz-adv-x="761" d="M33 297q0 141 76 229q33 39 67.5 64.5t73.5 48.5l6 2q47 29 86 64.5t39 103.5q0 23 -10.5 39t-57.5 16q-25 0 -51 -2t-92 -2v189h76q18 2 35.5 3t33.5 1q47 0 93.5 -16.5t82 -47.5t57 -76t21.5 -104q0 -147 -67 -211q-35 -33 -71 -61.5t-79 -53.5l-4 -4 q-39 -23 -64.5 -41t-40 -38.5t-20.5 -45t-6 -57.5q0 -16 13.5 -34.5t35 -34t50 -25.5t59.5 -10q100 0 139 53t39 151h184q0 -104 -30.5 -178t-81 -122t-116 -70.5t-134.5 -22.5q-70 0 -131.5 23.5t-108.5 64.5t-74.5 93.5t-27.5 111.5zM266 1196v277h187v-277h-187z" />
<glyph unicode="&#xc0;" horiz-adv-x="1241" d="M31 4l475 1452h217l477 -1452h-217l-106 324h-527l-104 -324h-215zM369 1808h186l166 -229h-186zM412 508h407l-205 618z" />
<glyph unicode="&#xc1;" horiz-adv-x="1224" d="M31 4l475 1452h217l477 -1452h-217l-106 324h-527l-104 -324h-215zM412 508h407l-205 618zM510 1604l188 229h185l-187 -229h-186z" />
<glyph unicode="&#xc2;" horiz-adv-x="1241" d="M31 4l475 1452h217l477 -1452h-217l-106 324h-527l-104 -324h-215zM350 1579l176 229h187l166 -229h-185l-78 104l-79 -104h-187zM412 508h407l-205 618z" />
<glyph unicode="&#xc3;" horiz-adv-x="1230" d="M31 4l475 1452h217l477 -1452h-217l-106 324h-527l-104 -324h-215zM285 1599q0 119 50 189t142 70q47 0 94 -22t88 -60q45 -41 82 -41q57 0 58 114h143q0 -113 -54 -184q-54 -72 -147 -72q-45 0 -92 21q-47 20 -88 59q-20 18 -42 30q-22 11 -44 11q-29 0 -38 -35t-9 -77z M412 508h407l-205 618z" />
<glyph unicode="&#xc4;" horiz-adv-x="1290" d="M59 4l478 1452h215l479 -1452h-217l-107 324h-526l-105 -324h-217zM168 1237v219h168v-219h-168zM440 508h410l-205 618zM952 1237v219h168v-219h-168z" />
<glyph unicode="&#xc5;" horiz-adv-x="1263" d="M31 4l475 1452h217l477 -1452h-217l-106 324h-527l-104 -324h-215zM412 508h407l-205 618zM414 1716q0 41 16 78t44 65t64 43t76 15q41 0 78 -15t65 -43t44 -65t16 -78q0 -43 -16 -80t-44 -64q-28 -28 -65 -43q-37 -16 -78 -16t-76 16q-36 15 -64 43t-44 64 q-16 37 -16 80zM528 1716q0 -37 25 -62q24 -26 61 -26q35 0 61 26t25 62q0 35 -25 61q-26 26 -61 25q-37 0 -61 -25q-25 -26 -25 -61z" />
<glyph unicode="&#xc6;" horiz-adv-x="1748" d="M27 4l809 1452h790v-205h-508v-422h496v-188h-496v-428h563v-209h-770v324h-471l-180 -324h-233zM541 508h370v661z" />
<glyph unicode="&#xc7;" horiz-adv-x="1085" d="M25 729q0 156 58 291t158.5 236.5t235.5 160t291 58.5q139 0 272 -50v-229q-133 74 -272 74q-221 0 -381 -160q-158 -158 -158 -381q0 -109 42 -206t115 -170.5t171 -116.5t211 -43q145 0 272 73v-227q-45 -18 -90 -29.5t-92 -17.5v-98q0 -82 -45 -156t-143 -133l-92 159 q35 20 63.5 53t28.5 77v100q-129 14 -247 76.5t-206 161t-140 225.5t-52 272z" />
<glyph unicode="&#xc8;" horiz-adv-x="903" d="M78 4v1460h713v-207h-508v-428h495v-188h-495v-428h567v-209h-772zM276 1812h187l166 -229h-187z" />
<glyph unicode="&#xc9;" d="M78 4v1460h713v-207h-508v-428h495v-188h-495v-428h567v-209h-772zM299 1593l188 230h185l-187 -230h-186z" />
<glyph unicode="&#xca;" horiz-adv-x="919" d="M78 4v1460h713v-207h-508v-428h495v-188h-495v-428h567v-209h-772zM244 1591l176 230h186l166 -230h-184l-78 105l-80 -105h-186z" />
<glyph unicode="&#xcb;" d="M78 4v1460h713v-207h-508v-428h495v-188h-495v-428h567v-209h-772zM154 1585v230h186v-230h-186zM563 1585v230h187v-230h-187z" />
<glyph unicode="&#xcc;" horiz-adv-x="505" d="M18 1812h187l166 -229h-187zM76 4v1452h205v-1452h-205z" />
<glyph unicode="&#xcd;" horiz-adv-x="505" d="M-10 1593l188 230h184l-186 -230h-186zM76 4v1452h205v-1452h-205z" />
<glyph unicode="&#xce;" horiz-adv-x="505" d="M-10 1591l176 230h186l166 -230h-184l-78 105l-80 -105h-186zM145 4v1452h205v-1452h-205z" />
<glyph unicode="&#xcf;" horiz-adv-x="505" d="M-104 1585v230h186v-230h-186zM76 4v1452h205v-1452h-205zM305 1585v230h187v-230h-187z" />
<glyph unicode="&#xd0;" horiz-adv-x="1263" d="M45 641v188h178v635h260q154 0 286 -56t232 -157q213 -211 213 -516q0 -154 -57 -287t-157.5 -231t-233.5 -155.5t-283 -57.5h-260v637h-178zM428 209h55q106 0 202.5 42t169.5 114.5t115 168t42 201.5t-42 201.5t-115 168.5t-169 115t-203 42h-55v-433h225v-188h-225 v-432z" />
<glyph unicode="&#xd1;" horiz-adv-x="1185" d="M80 4v1452h201l598 -1026v1026h206v-1452h-196l-604 1038v-1038h-205zM227 1606q0 119 51 188q50 70 142 70q47 0 94 -22t88 -60q45 -41 82 -41q57 0 57 114h144q0 -113 -55 -184q-54 -72 -146 -72q-45 0 -92 21q-47 20 -88 59q-20 18 -42 30q-22 11 -44 11 q-29 0 -38 -34q-9 -35 -9 -78z" />
<glyph unicode="&#xd2;" horiz-adv-x="1597" d="M49 729q0 156 59 291q58 135 159 236t237 160q135 59 291 59q154 0 288 -59q135 -58 237 -160q101 -101 160 -237q58 -136 58 -290t-57 -287t-160 -237q-219 -217 -526 -217q-313 0 -529 217q-100 102 -158 236t-59 288zM256 729q0 -109 42 -206t115 -171t171 -116 q98 -43 211 -43q111 0 207 41q97 42 172 115q74 73 115 170q42 97 42 210q1 225 -155 381q-160 160 -381 160t-381 -160q-158 -156 -158 -381zM520 1812h187l165 -229h-186z" />
<glyph unicode="&#xd3;" horiz-adv-x="1591" d="M49 729q0 156 59 291q58 135 159 236t237 160q135 59 291 59q154 0 288 -59q135 -58 237 -160q101 -101 160 -237q58 -136 58 -290t-57 -287t-160 -237q-219 -217 -526 -217q-313 0 -529 217q-100 102 -158 236t-59 288zM256 729q0 -109 42 -206t115 -171t171 -116 q98 -43 211 -43q111 0 207 41q97 42 172 115q74 73 115 170q42 97 42 210q1 225 -155 381q-160 160 -381 160t-381 -160q-158 -156 -158 -381zM651 1587l189 230h184l-186 -230h-187z" />
<glyph unicode="&#xd4;" horiz-adv-x="1597" d="M49 729q0 156 59 291q58 135 159 236t237 160q135 59 291 59q154 0 288 -59q135 -58 237 -160q101 -101 160 -237q58 -136 58 -290t-57 -287t-160 -237q-219 -217 -526 -217q-313 0 -529 217q-100 102 -158 236t-59 288zM256 729q0 -109 42 -206t115 -171t171 -116 q98 -43 211 -43q111 0 207 41q97 42 172 115q74 73 115 170q42 97 42 210q1 225 -155 381q-160 160 -381 160t-381 -160q-158 -156 -158 -381zM543 1591l176 230h186l166 -230h-184l-78 105l-80 -105h-186z" />
<glyph unicode="&#xd5;" horiz-adv-x="1591" d="M49 729q0 156 59 291q58 135 159 236t237 160q135 59 291 59q154 0 288 -59q135 -58 237 -160q101 -101 160 -237q58 -136 58 -290t-57 -287t-160 -237q-219 -217 -526 -217q-313 0 -529 217q-100 102 -158 236t-59 288zM256 729q0 -109 42 -206t115 -171t171 -116 q98 -43 211 -43q111 0 207 41q97 42 172 115q74 73 115 170q42 97 42 210q1 225 -155 381q-160 160 -381 160t-381 -160q-158 -156 -158 -381zM477 1599q0 119 50 189t143 70q47 0 94 -22t88 -60q45 -41 82 -41q57 0 57 114h144q0 -113 -55 -184q-54 -72 -146 -72 q-45 0 -92 21q-47 20 -88 59q-20 18 -42 30q-22 11 -44 11q-29 0 -38 -35t-9 -77z" />
<glyph unicode="&#xd6;" horiz-adv-x="1611" d="M61 729q0 307 215 526h-165v220h170v-218q98 100 233 159t293 59q154 0 287 -59.5t237 -158.5v218h168v-220h-168q104 -104 161.5 -237t57.5 -289q0 -154 -57 -287t-162 -237q-219 -217 -524 -217q-313 0 -531 217q-100 102 -157.5 236t-57.5 288zM266 729 q0 -109 42 -206t116 -170.5t172 -116.5t211 -43q111 0 208 41.5t169.5 114.5t115.5 170t43 210q1 223 -157 381q-160 160 -379 160q-225 0 -381 -160q-160 -158 -160 -381z" />
<glyph unicode="&#xd7;" horiz-adv-x="702" d="M47 285l172 172l-172 170l133 131l170 -170l172 172l131 -133l-170 -170l172 -172l-133 -133l-172 172l-170 -172z" />
<glyph unicode="&#xd8;" horiz-adv-x="1599" d="M55 729q0 156 58.5 291t159 236.5t236.5 160t292 58.5q215 0 399 -119l90 106h254l-194 -229q92 -100 143 -228t51 -276q0 -154 -57 -287t-162 -237q-217 -217 -524 -217q-227 0 -408 114l-90 -104h-246l193 227q-92 100 -143.5 230.5t-51.5 273.5zM260 729 q0 -197 123 -344l684 813q-121 72 -266 72q-225 0 -381 -160q-160 -158 -160 -381zM528 262q119 -69 273 -69q111 0 208 41.5t169.5 114.5t115.5 170t43 210q0 199 -123 344z" />
<glyph unicode="&#xd9;" horiz-adv-x="1089" d="M68 471v985h204v-985q0 -59 24 -111q24 -51 61 -88q38 -37 88 -58q50 -22 106 -21q57 0 107 21q50 22 88 59q38 38 61 88t22 110v985h207v-985q0 -98 -38 -186t-104 -155q-67 -67 -155 -104q-88 -38 -188 -38t-189 38q-88 38 -153 102q-66 65 -104 153t-37 190zM342 1808 h186l166 -229h-186z" />
<glyph unicode="&#xda;" horiz-adv-x="1099" d="M68 471v985h204v-985q0 -59 24 -111q24 -51 61 -88q38 -37 88 -58q50 -22 106 -21q57 0 107 21q50 22 88 59q38 38 61 88t22 110v985h207v-985q0 -98 -38 -186t-104 -155q-67 -67 -155 -104q-88 -38 -188 -38t-189 38q-88 38 -153 102q-66 65 -104 153t-37 190zM410 1620 l188 229h184l-186 -229h-186z" />
<glyph unicode="&#xdb;" horiz-adv-x="1126" d="M68 471v985h204v-985q0 -59 24 -111q24 -51 61 -88q38 -37 88 -58q50 -22 106 -21q57 0 107 21q50 22 88 59q38 38 61 88t22 110v985h207v-985q0 -98 -38 -186t-104 -155q-67 -67 -155 -104q-88 -38 -188 -38t-189 38q-88 38 -153 102q-66 65 -104 153t-37 190zM301 1581 l176 229h187l165 -229h-184l-78 105l-80 -105h-186z" />
<glyph unicode="&#xdc;" horiz-adv-x="1110" d="M72 471v985h204v-985q0 -59 23 -110.5t61.5 -88t89 -58t105.5 -21.5q57 0 107.5 21.5t88 59t59 88t21.5 109.5v985h207v-985q0 -98 -37.5 -186t-103.5 -155t-154 -104.5t-188 -37.5t-188 37.5t-154 102.5t-103.5 153t-37.5 190zM342 1237v219h170v-219h-170zM598 1237 v219h168v-219h-168z" />
<glyph unicode="&#xdd;" horiz-adv-x="966" d="M29 1456h219l207 -565l209 565h219l-326 -883v-569h-207v569zM328 1593l188 230h184l-186 -230h-186z" />
<glyph unicode="&#xde;" horiz-adv-x="890" d="M78 6q4 371 8 727.5t4 722.5h209v-305h168q86 0 160.5 -33t132 -90t90.5 -132t33 -161t-33 -160.5t-90.5 -132t-132 -90.5t-160.5 -33h-176v-315zM293 526h174q41 0 79 15.5t66.5 43t46 65.5t17.5 85q0 43 -16.5 81t-45 66.5t-66.5 45t-81 16.5h-168z" />
<glyph unicode="&#xdf;" horiz-adv-x="946" d="M74 4v1094q0 78 29.5 146.5t79.5 118.5t118 80t145 30q76 0 144.5 -29t121 -80t82 -118.5t29.5 -147.5q0 -162 -108 -264l-6 -7q94 -70 140 -166t46 -206q0 -90 -33 -172t-90 -143.5t-132 -98.5t-159 -37h-125v215q12 -4 26.5 -4h31.5q72 0 134 13.5t91 41.5 q68 76 68 185q0 80 -42 147.5t-120 89.5q-55 18 -187 17v200q57 0 94 3t62 10.5t40 17.5t28 23q53 57 53 135q0 39 -15.5 73.5t-41 59t-59.5 39t-73 14.5q-37 0 -70.5 -15.5t-59 -41t-41 -59t-15.5 -70.5v-1094h-186z" />
<glyph unicode="&#xe0;" horiz-adv-x="968" d="M55 459q0 98 32 184t85 150q53 63 124 100t148 37q164 0 277 -144l2 -2q0 -4 4 -4v133h184v-909h-184v133l-6 -6q-115 -141 -277 -141q-78 0 -148 36q-71 36 -124 98t-85 148t-32 187zM242 459q0 -57 19 -109q19 -51 52 -90t77 -61q44 -23 93 -23t95 23q45 23 77 61 q33 39 53 90q19 51 19 109q0 121 -76 205q-72 78 -168 77q-51 0 -95 -23q-44 -24 -77 -63t-51 -90t-18 -106zM322 1266h186l166 -230h-187z" />
<glyph unicode="&#xe1;" horiz-adv-x="985" d="M55 459q0 98 32 184t85 150q53 63 124 100t148 37q164 0 277 -144l2 -2q0 -4 4 -4v133h184v-909h-184v133l-6 -6q-115 -141 -277 -141q-78 0 -148 36q-71 36 -124 98t-85 148t-32 187zM242 459q0 -57 19 -109q19 -51 52 -90t77 -61q44 -23 93 -23t95 23q45 23 77 61 q33 39 53 90q19 51 19 109q0 121 -76 205q-72 78 -168 77q-51 0 -95 -23q-44 -24 -77 -63t-51 -90t-18 -106zM385 1047l188 229h185l-187 -229h-186z" />
<glyph unicode="&#xe2;" horiz-adv-x="978" d="M55 459q0 98 32 184t85 150q53 63 124 100t148 37q164 0 277 -144l2 -2q0 -4 4 -4v133h184v-909h-184v133l-6 -6q-115 -141 -277 -141q-78 0 -148 36q-71 36 -124 98t-85 148t-32 187zM242 459q0 -57 19 -109q19 -51 52 -90t77 -61q44 -23 93 -23t95 23q45 23 77 61 q33 39 53 90q19 51 19 109q0 121 -76 205q-72 78 -168 77q-51 0 -95 -23q-44 -24 -77 -63t-51 -90t-18 -106zM289 1044l176 230h186l166 -230h-184l-78 105l-80 -105h-186z" />
<glyph unicode="&#xe3;" horiz-adv-x="995" d="M55 459q0 98 32 184t85 150q53 63 124 100t148 37q164 0 277 -144l2 -2q0 -4 4 -4v133h184v-909h-184v133l-6 -6q-115 -141 -277 -141q-78 0 -148 36q-71 36 -124 98t-85 148t-32 187zM223 1059q0 119 50 188q50 70 143 70q47 0 94 -22t88 -60q45 -41 82 -41q57 0 57 115 h144q0 -113 -55 -185q-54 -72 -146 -71q-45 0 -92 20t-88 60q-20 18 -42 29t-44 12q-29 0 -38 -35t-9 -78zM242 459q0 -57 19 -109q19 -51 52 -90t77 -61q44 -23 93 -23t95 23q45 23 77 61q33 39 53 90q19 51 19 109q0 121 -76 205q-72 78 -168 77q-51 0 -95 -23 q-44 -24 -77 -63t-51 -90t-18 -106z" />
<glyph unicode="&#xe4;" horiz-adv-x="1007" d="M55 459q0 98 32 184t85 150q53 63 124 100t148 37q164 0 277 -144l2 -2q0 -4 4 -4v133h184v-909h-184v133l-6 -6q-115 -141 -277 -141q-78 0 -148 36q-71 36 -124 98t-85 148t-32 187zM197 1038v230h186v-230h-186zM242 459q0 -57 19 -109q19 -51 52 -90t77 -61 q44 -23 93 -23t95 23q45 23 77 61q33 39 53 90q19 51 19 109q0 121 -76 205q-72 78 -168 77q-51 0 -95 -23q-44 -24 -77 -63t-51 -90t-18 -106zM606 1038v230h187v-230h-187z" />
<glyph unicode="&#xe5;" horiz-adv-x="1110" d="M55 459q0 98 32 184t85 150q53 63 124 100t148 37q164 0 277 -144l2 -2q0 -4 4 -4v133h184v-909h-184v133l-6 -6q-115 -141 -277 -141q-78 0 -148 36q-71 36 -124 98t-85 148t-32 187zM242 459q0 -57 19 -109q19 -51 52 -90t77 -61q44 -23 93 -23t95 23q45 23 77 61 q33 39 53 90q19 51 19 109q0 121 -76 205q-72 78 -168 77q-51 0 -95 -23q-44 -24 -77 -63t-51 -90t-18 -106zM301 1180q0 41 16 77q16 37 44 65t64 43t77 15t78 -15t64 -43q28 -28 44 -65t17 -77q0 -43 -17 -80q-16 -37 -44 -65t-64 -43q-37 -15 -78 -15t-77 15t-64 43 t-44 65t-16 80zM416 1180q0 -37 24 -63q25 -25 62 -25q35 0 60 25q26 26 26 63q0 35 -26 60q-26 26 -60 26q-37 0 -62 -26t-24 -60z" />
<glyph unicode="&#xe6;" horiz-adv-x="1724" d="M61 459q0 98 32 184t85 149.5t123 100.5t148 37q164 0 276 -144l2 -2q0 -4 4 -4v133h187v-79q120 96 282 96q94 0 180 -37t150.5 -101.5t102.5 -149.5t38 -183q0 -20 -2 -40t-6 -42h-731q29 -98 103.5 -149.5t164.5 -51.5q106 0 191 74h231q-66 -129 -180.5 -194.5 t-241.5 -65.5q-164 0 -282 94v-80h-187v133l-6 -6q-115 -141 -276 -141q-78 0 -149 35.5t-124 98t-84 148.5t-31 187zM248 459q0 -57 19.5 -108.5t52 -90.5t76.5 -61.5t93 -22.5q47 0 89.5 21.5t75 57.5t53 83t24.5 100v41q-6 107 -76 185t-166 77q-51 0 -95 -23.5 t-76.5 -62.5t-51 -90t-18.5 -106zM932 543h538q-31 96 -104.5 147t-165.5 51q-90 0 -164.5 -51t-103.5 -147z" />
<glyph unicode="&#xe7;" horiz-adv-x="782" d="M27 459q0 96 36.5 182t101 150.5t150 101.5t181.5 37q129 0 239 -68v-254q-90 133 -239 133q-57 0 -108.5 -22.5t-90.5 -60t-61.5 -90t-22.5 -109.5q0 -59 22.5 -110.5t61.5 -89.5t90 -60.5t109 -22.5q156 0 239 133v-254q-80 -47 -155 -59v-111q0 -82 -45.5 -155.5 t-143.5 -132.5l-92 159q35 23 63.5 54.5t28.5 74.5v115q-80 16 -146.5 60t-115.5 105.5t-75.5 137.5t-26.5 156z" />
<glyph unicode="&#xe8;" horiz-adv-x="1130" d="M53 459q0 96 37 182t101 151q65 65 150 101q85 37 181 37q94 0 180 -37t151 -101q65 -65 102 -150q38 -85 38 -183q0 -43 -8 -82h-731q29 -98 104 -150q76 -51 164 -51q106 0 191 74h231q-66 -129 -179 -195q-114 -66 -243 -65q-96 0 -182 37t-150 101q-63 65 -100 150 t-37 181zM254 543h541q-33 96 -107 147t-166 51q-90 0 -165 -51t-103 -147zM332 1266h186l166 -230h-186z" />
<glyph unicode="&#xe9;" horiz-adv-x="1130" d="M53 459q0 96 37 182t101 151q65 65 150 101q85 37 181 37q94 0 180 -37t151 -101q65 -65 102 -150q38 -85 38 -183q0 -43 -8 -82h-731q29 -98 104 -150q76 -51 164 -51q106 0 191 74h231q-66 -129 -179 -195q-114 -66 -243 -65q-96 0 -182 37t-150 101q-63 65 -100 150 t-37 181zM254 543h541q-33 96 -107 147t-166 51q-90 0 -165 -51t-103 -147zM395 1047l189 229h184l-186 -229h-187z" />
<glyph unicode="&#xea;" horiz-adv-x="1130" d="M53 459q0 96 37 182t101 151q65 65 150 101q85 37 181 37q94 0 180 -37t151 -101q65 -65 102 -150q38 -85 38 -183q0 -43 -8 -82h-731q29 -98 104 -150q76 -51 164 -51q106 0 191 74h231q-66 -129 -179 -195q-114 -66 -243 -65q-96 0 -182 37t-150 101q-63 65 -100 150 t-37 181zM254 543h541q-33 96 -107 147t-166 51q-90 0 -165 -51t-103 -147zM297 1044l176 230h186l166 -230h-184l-78 105l-80 -105h-186z" />
<glyph unicode="&#xeb;" horiz-adv-x="1052" d="M53 459q0 96 37 182t101 151q65 65 150 101q85 37 181 37q94 0 180 -37t151 -101q65 -65 102 -150q38 -85 38 -183q0 -43 -8 -82h-731q29 -98 104 -150q76 -51 164 -51q106 0 191 74h231q-66 -129 -179 -195q-114 -66 -243 -65q-96 0 -182 37t-150 101q-63 65 -100 150 t-37 181zM223 1038v230h187v-230h-187zM254 543h541q-33 96 -107 147t-166 51q-90 0 -165 -51t-103 -147zM633 1038v230h186v-230h-186z" />
<glyph unicode="&#xec;" horiz-adv-x="403" d="M27 1266h186l166 -230h-186zM109 4v914h186v-914h-186z" />
<glyph unicode="&#xed;" horiz-adv-x="419" d="M23 1047l188 229h184l-186 -229h-186zM115 4v914h184v-914h-184z" />
<glyph unicode="&#xee;" horiz-adv-x="575" d="M23 1044l178 230h184l168 -230h-186l-76 105l-82 -105h-186zM193 4v914h186v-914h-186z" />
<glyph unicode="&#xef;" horiz-adv-x="665" d="M35 1038v230h186v-230h-186zM238 4v914h186v-914h-186zM444 1038v230h187v-230h-187z" />
<glyph unicode="&#xf0;" horiz-adv-x="1028" d="M53 459q0 90 34 173t92.5 146.5t139 103.5t175.5 46l-52 59h-268v187h107l-177 206h248l174 -206h283v-187h-121l180 -213q125 -133 125 -315q0 -98 -37.5 -183.5t-102.5 -149t-151 -100t-180 -36.5q-96 0 -182 36.5t-149.5 101.5t-100.5 149.5t-37 181.5zM240 459 q0 -59 22.5 -110.5t60 -89.5t89 -60.5t110.5 -22.5q57 0 109.5 21.5t90.5 60.5t60.5 90t22.5 111q0 120 -84 200q-80 82 -199 82q-59 0 -110.5 -22.5t-89 -60t-60 -90t-22.5 -109.5z" />
<glyph unicode="&#xf1;" horiz-adv-x="1040" d="M80 4v914h184v-111q14 27 40 50q26 24 56 41q31 17 65 28q34 10 67 10q72 0 135 -31t110 -83t75 -122t28 -145v-551h-189v551q0 80 -55 135h-2q-61 57 -137 58q-37 0 -72 -15q-35 -14 -61 -40q-27 -26 -43 -61q-16 -36 -17 -77v-551h-184zM143 1059q0 119 51 188 q50 70 142 70q47 0 94 -22t88 -60q45 -41 82 -41q57 0 57 115h144q0 -113 -55 -185q-54 -72 -146 -71q-45 0 -92 20t-88 60q-20 18 -42 29t-44 12q-29 0 -38 -35t-9 -78z" />
<glyph unicode="&#xf2;" horiz-adv-x="1044" d="M53 459q0 96 37 182t101 151q65 65 150 101q85 37 181 37q94 0 180 -37t151 -101q65 -65 102 -150q38 -85 38 -183t-38 -184q-38 -85 -102 -148q-65 -63 -151 -100t-180 -37q-96 0 -182 37t-150 101q-63 65 -100 150t-37 181zM240 459q0 -59 22 -111q23 -51 62 -89 t90 -60q51 -23 108 -23t110 22q52 22 91 60q39 39 61 90q23 51 23 111q0 120 -84 200q-80 82 -201 82q-57 0 -108 -22q-51 -23 -90 -61t-62 -90t-22 -109zM297 1264h186l166 -230h-186z" />
<glyph unicode="&#xf3;" horiz-adv-x="1050" d="M53 459q0 96 37 182t101 151q65 65 150 101q85 37 181 37q94 0 180 -37t151 -101q65 -65 102 -150q38 -85 38 -183t-38 -184q-38 -85 -102 -148q-65 -63 -151 -100t-180 -37q-96 0 -182 37t-150 101q-63 65 -100 150t-37 181zM240 459q0 -59 22 -111q23 -51 62 -89 t90 -60q51 -23 108 -23t110 22q52 22 91 60q39 39 61 90q23 51 23 111q0 120 -84 200q-80 82 -201 82q-57 0 -108 -22q-51 -23 -90 -61t-62 -90t-22 -109zM422 1038l188 230h185l-187 -230h-186z" />
<glyph unicode="&#xf4;" horiz-adv-x="1050" d="M53 459q0 96 37 182t101 151q65 65 150 101q85 37 181 37q94 0 180 -37t151 -101q65 -65 102 -150q38 -85 38 -183t-38 -184q-38 -85 -102 -148q-65 -63 -151 -100t-180 -37q-96 0 -182 37t-150 101q-63 65 -100 150t-37 181zM240 459q0 -59 22 -111q23 -51 62 -89 t90 -60q51 -23 108 -23t110 22q52 22 91 60q39 39 61 90q23 51 23 111q0 120 -84 200q-80 82 -201 82q-57 0 -108 -22q-51 -23 -90 -61t-62 -90t-22 -109zM256 1036l176 230h186l166 -230h-184l-78 105l-80 -105h-186z" />
<glyph unicode="&#xf5;" horiz-adv-x="1054" d="M53 459q0 96 37 182t101 151q65 65 150 101q85 37 181 37q94 0 180 -37t151 -101q65 -65 102 -150q38 -85 38 -183t-38 -184q-38 -85 -102 -148q-65 -63 -151 -100t-180 -37q-96 0 -182 37t-150 101q-63 65 -100 150t-37 181zM199 1057q0 119 50 188q50 70 142 70 q47 0 94 -22t88 -60q45 -41 82 -41q57 0 58 115h143q0 -113 -54 -185t-147 -71q-45 0 -92 20t-88 59q-20 18 -42 30q-22 11 -44 11q-29 0 -38 -34q-9 -35 -9 -78zM240 459q0 -59 22 -111q23 -51 62 -89t90 -60q51 -23 108 -23t110 22q52 22 91 60q39 39 61 90q23 51 23 111 q0 120 -84 200q-80 82 -201 82q-57 0 -108 -22q-51 -23 -90 -61t-62 -90t-22 -109z" />
<glyph unicode="&#xf6;" horiz-adv-x="1054" d="M53 459q0 96 37 182t101 151q65 65 150 101q85 37 181 37q94 0 180 -37t151 -101q65 -65 102 -150q38 -85 38 -183t-38 -184q-38 -85 -102 -148q-65 -63 -151 -100t-180 -37q-96 0 -182 37t-150 101q-63 65 -100 150t-37 181zM211 1038v230h186v-230h-186zM240 459 q0 -59 22 -111q23 -51 62 -89t90 -60q51 -23 108 -23t110 22q52 22 91 60q39 39 61 90q23 51 23 111q0 120 -84 200q-80 82 -201 82q-57 0 -108 -22q-51 -23 -90 -61t-62 -90t-22 -109zM621 1038v230h186v-230h-186z" />
<glyph unicode="&#xf7;" horiz-adv-x="772" d="M59 645v186h670v-186h-670zM305 279v276h184v-276h-184zM305 909v277h184v-277h-184z" />
<glyph unicode="&#xf8;" horiz-adv-x="1054" d="M55 2l117 145q-117 131 -117 312q0 96 37 182t101.5 150.5t149.5 101.5t181 37q123 0 232 -60l41 52h202l-122 -152q119 -131 118 -311q0 -98 -37.5 -183.5t-102 -149t-151 -100t-180.5 -36.5q-133 0 -231 59l-37 -47h-201zM242 459q0 -92 51 -162l342 424 q-50 20 -111 20q-57 0 -108 -22.5t-90 -60t-61.5 -90t-22.5 -109.5zM414 199q44 -23 110 -23q57 0 109.5 21.5t91.5 60.5t61.5 90t22.5 111q0 90 -51 164z" />
<glyph unicode="&#xf9;" horiz-adv-x="919" d="M70 373v551h186v-551h2q0 -37 14 -72t41 -61q27 -27 62 -42t76 -16q37 0 71 15q35 14 62 41t43 60q16 34 16 75v551h188v-920h-188v117q-33 -53 -98 -90q-66 -37 -127 -37q-74 0 -137 30t-111 81q-47 52 -74 121t-26 147zM287 1266h186l166 -230h-186z" />
<glyph unicode="&#xfa;" horiz-adv-x="899" d="M70 373v551h186v-551h2q0 -37 14 -72t41 -61q27 -27 62 -42t76 -16q37 0 71 15q35 14 62 41t43 60q16 34 16 75v551h188v-920h-188v117q-33 -53 -98 -90q-66 -37 -127 -37q-74 0 -137 30t-111 81q-47 52 -74 121t-26 147zM328 1057l188 229h184l-186 -229h-186z" />
<glyph unicode="&#xfb;" d="M70 373v551h186v-551h2q0 -37 14 -72t41 -61q27 -27 62 -42t76 -16q37 0 71 15q35 14 62 41t43 60q16 34 16 75v551h188v-920h-188v117q-33 -53 -98 -90q-66 -37 -127 -37q-74 0 -137 30t-111 81q-47 52 -74 121t-26 147zM213 1044l176 230h186l166 -230h-184l-78 105 l-80 -105h-186z" />
<glyph unicode="&#xfc;" horiz-adv-x="913" d="M70 373v551h186v-551h2q0 -37 14 -72t41 -61q27 -27 62 -42t76 -16q37 0 71 15q35 14 62 41t43 60q16 34 16 75v551h188v-920h-188v117q-33 -53 -98 -90q-66 -37 -127 -37q-74 0 -137 30t-111 81q-47 52 -74 121t-26 147zM164 1038v230h186v-230h-186zM573 1038v230h187 v-230h-187z" />
<glyph unicode="&#xfd;" horiz-adv-x="897" d="M35 918h201l215 -574l170 574h194l-360 -1223h-197l104 354zM332 1047l188 229h185l-187 -229h-186z" />
<glyph unicode="&#xfe;" horiz-adv-x="937" d="M80 -305v1780h184v-695q4 4 8 6q111 143 277 144q78 0 147.5 -37t122.5 -100.5t85 -149.5t32 -184q0 -100 -32 -186.5t-85 -149t-122.5 -98t-147.5 -35.5q-166 0 -277 141l-8 6v-442h-184zM264 459q0 -57 19.5 -108.5t52.5 -90.5t78 -61.5t94 -22.5t93 22.5t77 61.5 t52.5 90t19.5 109q0 55 -19.5 106t-52.5 90t-77 62.5t-93 23.5q-100 1 -166 -77q-78 -84 -78 -205z" />
<glyph unicode="&#xff;" horiz-adv-x="872" d="M35 918h201l215 -574l170 574h194l-360 -1223h-197l104 354zM154 1038v230h186v-230h-186zM563 1038v230h187v-230h-187z" />
<glyph unicode="&#x152;" horiz-adv-x="2170" d="M55 729q0 156 58.5 291t159 236.5t236.5 160t292 58.5q154 0 288 -59.5t236 -158.5l12 -12v219h713v-207h-508v-428h498v-188h-498v-428h567v-209h-772v213l-12 -12q-217 -217 -524 -217q-313 0 -531 217q-100 102 -157.5 236t-57.5 288zM260 729q0 -109 42 -206 t116 -170.5t172 -116.5t211 -43q109 0 206 40.5t169.5 112.5t115.5 167t45 206v22q-5 217 -157 369q-160 160 -379 160q-225 0 -381 -160q-160 -158 -160 -381z" />
<glyph unicode="&#x153;" horiz-adv-x="1808" d="M59 459q0 96 37 182t101.5 150.5t149.5 101.5t181 37q109 0 207.5 -46t169.5 -145q72 96 169 143.5t208 47.5q94 0 180 -37t150.5 -101.5t102.5 -149.5t38 -183q0 -39 -6 -82h-733q29 -98 104.5 -149.5t163.5 -51.5q106 0 191 74h231q-63 -129 -178 -194.5t-244 -65.5 q-229 0 -377 188q-70 -98 -169 -143t-208 -45q-96 0 -182 36.5t-149.5 101.5t-100.5 149.5t-37 181.5zM246 459q0 -59 22.5 -110.5t60.5 -89.5t89 -60.5t110 -22.5q57 0 108.5 21.5t90.5 60.5t61.5 90t22.5 111q0 120 -84 200q-80 82 -199 82q-59 0 -110 -22.5t-89 -60 t-60.5 -90t-22.5 -109.5zM1014 543h540q-33 96 -106.5 147t-165.5 51q-90 0 -165 -51t-103 -147z" />
<glyph unicode="&#x178;" horiz-adv-x="966" d="M29 1456h219l207 -565l209 565h219l-326 -883v-569h-207v569zM125 1585v230h186v-230h-186zM535 1585v230h186v-230h-186z" />
<glyph unicode="&#x2c6;" horiz-adv-x="604" d="M37 1044l176 230h186l166 -230h-184l-78 105l-80 -105h-186z" />
<glyph unicode="&#x2dc;" horiz-adv-x="774" d="M59 1059q0 119 50.5 188.5t142.5 69.5q47 0 94 -21.5t88 -60.5q45 -41 82 -41q57 0 57 115h144q0 -113 -54.5 -184.5t-146.5 -71.5q-45 0 -92 20.5t-88 59.5q-20 18 -42 29.5t-44 11.5q-29 0 -38 -35t-9 -78z" />
<glyph unicode="&#x2000;" horiz-adv-x="958" />
<glyph unicode="&#x2001;" horiz-adv-x="1917" />
<glyph unicode="&#x2002;" horiz-adv-x="958" />
<glyph unicode="&#x2003;" horiz-adv-x="1917" />
<glyph unicode="&#x2004;" horiz-adv-x="639" />
<glyph unicode="&#x2005;" horiz-adv-x="479" />
<glyph unicode="&#x2006;" horiz-adv-x="319" />
<glyph unicode="&#x2007;" horiz-adv-x="319" />
<glyph unicode="&#x2008;" horiz-adv-x="239" />
<glyph unicode="&#x2009;" horiz-adv-x="383" />
<glyph unicode="&#x200a;" horiz-adv-x="106" />
<glyph unicode="&#x2010;" horiz-adv-x="524" d="M80 381v186h362v-186h-362z" />
<glyph unicode="&#x2011;" horiz-adv-x="524" d="M80 381v186h362v-186h-362z" />
<glyph unicode="&#x2012;" horiz-adv-x="524" d="M80 381v186h362v-186h-362z" />
<glyph unicode="&#x2013;" horiz-adv-x="815" d="M72 362v187h671v-187h-671z" />
<glyph unicode="&#x2014;" horiz-adv-x="1114" d="M72 362v187h968v-187h-968z" />
<glyph unicode="&#x2018;" horiz-adv-x="350" d="M45 1159q39 27 65.5 55.5t26.5 71.5v168h189v-168q0 -82 -45 -155.5t-144 -131.5z" />
<glyph unicode="&#x2019;" horiz-adv-x="350" d="M25 1001v168q0 82 44 156t142 131l94 -160q-41 -27 -67.5 -56.5t-26.5 -70.5v-168h-186z" />
<glyph unicode="&#x201a;" horiz-adv-x="409" d="M78 -123q35 20 64.5 53t29.5 74v236h186v-236q0 -82 -44 -155.5t-142 -133.5z" />
<glyph unicode="&#x201c;" horiz-adv-x="696" d="M59 1159q41 27 68 55.5t27 71.5v168h186v-168q0 -82 -44 -155.5t-142 -131.5zM371 1159q39 27 65.5 55.5t26.5 71.5v168h188v-168q0 -82 -45 -155.5t-143 -131.5z" />
<glyph unicode="&#x201d;" horiz-adv-x="696" d="M47 1001v168q0 82 45 156t144 131l92 -160q-39 -27 -65.5 -56.5t-26.5 -70.5v-168h-189zM358 1001v168q0 82 45.5 156t143.5 131l92 -160q-39 -27 -65.5 -56.5t-26.5 -70.5v-168h-189z" />
<glyph unicode="&#x201e;" horiz-adv-x="763" d="M47 -123q35 20 64.5 53t29.5 74v236h189v-236q0 -82 -45 -155.5t-144 -133.5zM354 -123q35 20 63.5 53t28.5 74v236h189v-236q0 -82 -45 -155.5t-144 -133.5z" />
<glyph unicode="&#x2022;" horiz-adv-x="501" d="M49 535q0 43 16.5 79.5t44 64.5t63.5 43t77 15t78 -16t64.5 -44t44 -65t16.5 -77q0 -41 -16.5 -78t-44 -64.5t-64.5 -43t-78 -15.5t-77 15.5t-63.5 43t-44 64.5t-16.5 78z" />
<glyph unicode="&#x2026;" horiz-adv-x="1306" d="M72 4v277h186v-277h-186zM559 4v277h186v-277h-186zM1049 4v277h186v-277h-186z" />
<glyph unicode="&#x202f;" horiz-adv-x="383" />
<glyph unicode="&#x2039;" horiz-adv-x="421" d="M31 410l133 327h203l-136 -327l127 -310h-200z" />
<glyph unicode="&#x203a;" horiz-adv-x="423" d="M57 737h199l135 -327l-127 -310h-203l129 310z" />
<glyph unicode="&#x205f;" horiz-adv-x="479" />
<glyph unicode="&#x20ac;" horiz-adv-x="1189" d="M25 432l96 189h53q-6 51 -6 108v41t2 39h-119l103 186h59l12 25q43 100 112 184t158 143.5t194.5 93.5t221.5 34q53 0 107.5 -7.5t105.5 -23.5l-65 -195q-4 0 -39 10.5t-109 10.5q-70 0 -138 -17.5t-129.5 -52.5t-114 -86t-89.5 -119h541l-55 -186h-549q-2 -20 -3 -38.5 t-1 -41.5q0 -29 2 -55.5t8 -52.5h487l-55 -189h-354q82 -121 195.5 -180t254.5 -59q115 0 213 43v-218q-102 -31 -213 -30q-109 0 -210 28.5t-190 85t-162 139.5t-122 191h-202z" />
<glyph unicode="&#x2122;" horiz-adv-x="1021" d="M51 1389v75h338v-75h-131v-469h-76v469h-131zM467 920v542h76l164 -360l165 360h76v-542h-76v356l-165 -358l-164 358v-356h-76z" />
<glyph unicode="&#xe000;" horiz-adv-x="921" d="M0 0v922h922v-922h-922z" />
<glyph unicode="&#xfb01;" horiz-adv-x="796" d="M43 729v189h90v305q0 45 18.5 88t50 74.5t74.5 51t91 19.5h65v-188h-65q-20 0 -32.5 -14.5t-12.5 -30.5v-305h407v-914h-186v725h-221v-725h-189v725h-90zM543 1151v229h186v-229h-186z" />
<glyph unicode="&#xfb02;" horiz-adv-x="831" d="M45 729v189h90v305q0 45 18.5 88t50.5 74.5t75 51t90 19.5h391v-1452h-187v1264h-204q-20 0 -32.5 -14.5t-12.5 -30.5v-305h102v-189h-102v-725h-189v725h-90z" />
<glyph unicode="&#xfb03;" horiz-adv-x="1267" d="M53 729v189h90v305q0 45 18.5 88t50.5 74.5t75 51t90 19.5h65v-188h-65q-20 0 -32.5 -14.5t-12.5 -30.5v-305h250v305q0 45 18 88t50 74.5t75 51t90 19.5h66v-188h-66q-20 0 -32.5 -14.5t-12.5 -30.5v-305h428v-914h-186v725h-242v-725h-188v725h-250v-725h-189v725h-90z M1012 1151v229h186v-229h-186z" />
<glyph unicode="&#xfb04;" horiz-adv-x="1296" d="M55 729v189h90v305q0 45 18.5 88t50.5 74.5t75 51t90 19.5h63v-188h-63q-23 0 -34 -14.5t-11 -30.5v-305h250v305q0 45 18.5 88t50 74.5t73.5 51t89 19.5h410v-1452h-187v1264h-223q-20 0 -32.5 -14.5t-12.5 -30.5v-305h104v-189h-104v-725h-186v725h-250v-725h-189v725 h-90z" />
</font>
</defs>
</svg>
